<?xml version="1.0" standalone="no"?><!DOCTYPE svg PUBLIC "-//W3C//DTD SVG 1.1//EN" "http://www.w3.org/Graphics/SVG/1.1/DTD/svg11.dtd"><svg t="1706187979286" class="icon" viewBox="0 0 1024 1024" version="1.1" xmlns="http://www.w3.org/2000/svg" p-id="8625" xmlns:xlink="http://www.w3.org/1999/xlink" width="200" height="200"><path d="M903.10144 441.09824l-288.39936-288.50176c-55.59296-55.5008-145.89952-55.5008-201.49248 0l-288.3072 288.40448c-26.90048 26.90048-41.7024 62.60224-41.7024 100.70016 0 20.10112 4.1984 39.70048 12.09856 57.4976a3.84 3.84 0 0 0 6.20032 1.1008l194.80064-194.69824 185.00096-185.00096a46.1824 46.1824 0 0 1 32.70144-13.50144c11.89888 0 23.69536 4.50048 32.69632 13.50144l185.70752 185.7024 194.0992 194.0992a3.84 3.84 0 0 0 6.20032-1.1008 142.1568 142.1568 0 0 0 12.09856-57.4976c-0.00512-38.10304-14.80192-73.8048-41.7024-100.70528z" fill="#71c9f7" p-id="8626" data-spm-anchor-id="a313x.search_index.0.i0.553c3a81o2bZuT" class="selected"></path><path d="M525.99808 265.90208a16.96256 16.96256 0 0 0-24.10496 0l-300.29824 300.29824a28.67712 28.67712 0 0 0-8.40192 20.3008v230.70208c0 54.2976 44.00128 98.29888 98.29888 98.29888h103.30112a18.88256 18.88256 0 0 0 18.89792-18.8928v-223.09888c0-11.40736 14.10048-16.50688 24.20224-16.50688h152.30464c11.60192 0 24.20224 6.2976 24.20224 16.50688v223.09888c0 10.3936 8.40192 18.8928 18.89792 18.8928h103.30112c54.2976 0 98.29888-44.09856 98.29888-98.29888v-230.70208a28.672 28.672 0 0 0-8.40704-20.3008l-300.4928-300.29824z" fill="#b6dff5" p-id="8627" data-spm-anchor-id="a313x.search_index.0.i5.553c3a81o2bZuT" class=""></path></svg>